<svg xmlns="http://www.w3.org/2000/svg" xmlns:xlink="http://www.w3.org/1999/xlink" viewBox="0 0 793.43 569.33"><defs><style>.cls-1{fill:url(#linear-gradient);}.cls-2{fill:url(#linear-gradient-2);}.cls-3{fill:url(#linear-gradient-3);}</style><linearGradient id="linear-gradient" x1="369.02" y1="346.71" x2="793.43" y2="346.71" gradientUnits="userSpaceOnUse"><stop offset="0" stop-color="#ebd594"/><stop offset="1" stop-color="#dfbe7c"/></linearGradient><linearGradient id="linear-gradient-2" x1="0" y1="346.71" x2="424.65" y2="346.71" xlink:href="#linear-gradient"/><linearGradient id="linear-gradient-3" x1="396.71" y1="143.6" x2="396.71" y2="0" xlink:href="#linear-gradient"/></defs><g id="Layer_2" data-name="Layer 2"><g id="Layer_2-2" data-name="Layer 2"><path class="cls-1" d="M791.92,375.45A225.25,225.25,0,0,1,732,503.62c-40.14,42.38-93.64,65.71-150.62,65.71S470.87,546,430.72,503.62c-39.79-42-61.7-97.71-61.7-156.91s21.91-114.92,61.7-156.92c40.15-42.37,93.65-65.7,150.63-65.7S691.83,147.42,732,189.79a223.48,223.48,0,0,1,48.18,78.42H720.62c-25.7-54.5-77.63-91.79-139.27-91.79-88.23,0-156.57,76.39-156.57,170.29S493.12,517,581.35,517c79,0,142.09-61.29,154.38-141.55H570.62V335.13H793.39C793.58,339,793.09,366,791.92,375.45Z"/><path class="cls-2" d="M212.33,569.33c-57,0-110.48-23.34-150.63-65.71C21.91,461.64,0,405.91,0,346.71S21.91,231.78,61.7,189.8c40.15-42.38,93.64-65.71,150.63-65.71S322.8,147.42,363,189.8c39.79,42,61.7,97.71,61.7,156.91S402.74,461.64,363,503.62C322.8,546,269.31,569.33,212.33,569.33Zm0-392.91c-88.23,0-156.57,76.39-156.57,170.29S124.1,517,212.33,517s156.56-76.39,156.56-170.29S300.55,176.42,212.33,176.42Z"/><path class="cls-3" d="M459.8,140.83q-24-28.44-48-56.9L384.39,51.2c-3-3.88-7.74-9.77-7.74-15.78a19.93,19.93,0,1,1,38.28,7.75h16.21a35.42,35.42,0,1,0-59.39,17.52,41.5,41.5,0,1,0,43,51.3.6.6,0,0,0,.08.08L441.13,142l17.64-.24,1.73,0Zm-85.36-11.6a27.13,27.13,0,1,1,27.11-27.13A27.13,27.13,0,0,1,374.44,129.23Z"/></g></g></svg>