<?xml version="1.0" standalone="no"?>
<!DOCTYPE svg PUBLIC "-//W3C//DTD SVG 20010904//EN"
 "http://www.w3.org/TR/2001/REC-SVG-20010904/DTD/svg10.dtd">
<svg version="1.0" xmlns="http://www.w3.org/2000/svg"
 width="793.000000pt" height="793.000000pt" viewBox="0 0 793.000000 793.000000"
 preserveAspectRatio="xMidYMid meet">
<metadata>
Created by potrace 1.14, written by Peter Selinger 2001-2017
</metadata>
<g transform="translate(0.000000,793.000000) scale(0.100000,-0.100000)"
fill="#000000" stroke="none">
<path d="M3853 6791 c-136 -47 -225 -158 -239 -300 -9 -81 17 -177 62 -237 39
-51 40 -54 16 -54 -82 0 -222 -83 -282 -168 -165 -230 -57 -552 212 -633 209
-64 426 42 506 246 l19 48 133 -152 134 -152 86 7 c47 4 86 7 87 8 1 1 -39 51
-90 111 -408 484 -683 817 -705 854 -75 128 22 284 175 284 71 0 137 -40 171
-103 19 -37 23 -56 20 -107 l-4 -63 77 0 77 0 7 39 c3 21 2 64 -4 94 -39 213
-260 347 -458 278z m12 -759 c89 -46 144 -136 145 -236 0 -81 -17 -129 -64
-183 -139 -158 -396 -108 -462 90 -45 134 30 291 163 342 53 21 166 14 218
-13z"/>
<path d="M1975 5564 c-16 -2 -72 -9 -124 -15 -482 -56 -981 -332 -1312 -727
-714 -853 -714 -2101 0 -2954 517 -617 1341 -882 2107 -678 523 139 977 485
1271 968 l51 83 51 -84 c75 -125 187 -271 296 -385 561 -590 1396 -799 2159
-541 129 44 354 155 470 233 325 219 607 547 771 899 138 297 200 562 212 913
l6 184 -1114 -2 -1114 -3 -3 -197 -2 -198 825 0 c731 0 825 -2 825 -15 0 -37
-45 -217 -77 -309 -194 -562 -647 -965 -1203 -1072 -141 -27 -390 -25 -535 4
-309 61 -562 197 -785 421 -140 141 -229 265 -314 436 -76 152 -125 296 -158
456 -20 101 -23 142 -23 364 0 222 3 263 23 364 33 160 82 304 158 456 85 172
174 295 314 435 219 219 464 354 760 417 152 33 413 37 560 9 469 -90 857
-381 1096 -823 l39 -73 293 0 c198 0 292 3 292 11 0 20 -72 185 -122 279 -144
273 -375 546 -616 729 -619 469 -1441 551 -2137 211 -357 -175 -673 -464 -887
-812 l-60 -99 -51 83 c-333 546 -860 909 -1467 1009 -109 19 -407 33 -475 23z
m296 -525 c350 -35 654 -183 909 -438 140 -141 229 -265 314 -436 76 -152 126
-298 156 -450 113 -588 -45 -1172 -430 -1587 -224 -242 -499 -395 -825 -460
-156 -31 -405 -31 -555 1 -485 103 -868 404 -1096 860 -211 425 -246 940 -93
1404 238 725 904 1180 1620 1106z"/>
</g>
</svg>
